# xmcd
#
# Track frame offsets:
#	150
#	20151
#	39934
#	55042
#	71444
#	82668
#	99653
#	113340
#	125936
#	144223
#	159643
#	177675
#
# Disc length: 2536 seconds
#
# Revision: 1
# Processed by: cddbd v1.4PL0 Copyright (c) Steve Scherf et al.
# Submitted via: audiograbber 1.80
#
DISCID=9909e60c
DTITLE=Various Artist - Blue Rhythm Presents Don't Stumble Vol. 2
DYEAR=1900
DGENRE=
TTITLE0=Egidio Juke Ingala - Let Me Back
TTITLE1=Nick Katzman - Old Enough To Smoke
TTITLE2=Tom Shaka - Throw A Boogie Woogie
TTITLE3=Mike and The Mellotones - Too Muck Too Fast
TTITLE4=Roscoe Chenier - Sugar Mama
TTITLE5=Memo Gonzalez and The Bluescasters - Get Up, Jump Up
TTITLE6=Big George Jackson - Ela May
TTITLE7=B.b. and The Blues Shacks - Waitin' On Somebody
TTITLE8=Tom Shaka - Fire On The Delta
TTITLE9=Percy Strother - Home At Last
TTITLE10=B.b. and The Blues Shacks - Should Be Mine
TTITLE11=Egidio Juke Ingala - If You Love Me Baby
EXTD=Compilation von Stumble
EXTT0=
EXTT1=
EXTT2=
EXTT3=
EXTT4=
EXTT5=
EXTT6=
EXTT7=
EXTT8=
EXTT9=
EXTT10=
EXTT11=
PLAYORDER=
